<mxfile host="app.diagrams.net" agent="Mozilla/5.0 (Windows NT 10.0; Win64; x64) AppleWebKit/537.36 (KHTML, like Gecko) Chrome/132.0.0.0 Safari/537.36 OPR/117.0.0.0" version="26.2.5">
  <diagram name="1 oldal" id="5NIFf1rndSAZD2tm4gDE">
    <mxGraphModel grid="1" page="1" gridSize="10" guides="1" tooltips="1" connect="1" arrows="1" fold="1" pageScale="1" pageWidth="1169" pageHeight="200" math="0" shadow="0">
      <root>
        <mxCell id="0" />
        <mxCell id="1" parent="0" />
        <mxCell id="_8v8_xtLDQyx1Tbt9Tl6-6" style="edgeStyle=orthogonalEdgeStyle;rounded=0;orthogonalLoop=1;jettySize=auto;html=1;entryX=1;entryY=0.5;entryDx=0;entryDy=0;endArrow=none;startFill=0;" edge="1" parent="1" source="_8v8_xtLDQyx1Tbt9Tl6-1" target="_8v8_xtLDQyx1Tbt9Tl6-3">
          <mxGeometry relative="1" as="geometry" />
        </mxCell>
        <mxCell id="_8v8_xtLDQyx1Tbt9Tl6-1" value="Gyártó" style="rounded=0;whiteSpace=wrap;html=1;" vertex="1" parent="1">
          <mxGeometry x="-475" y="-278" width="200" height="80" as="geometry" />
        </mxCell>
        <mxCell id="_8v8_xtLDQyx1Tbt9Tl6-5" style="edgeStyle=orthogonalEdgeStyle;rounded=0;orthogonalLoop=1;jettySize=auto;html=1;entryX=0;entryY=0.5;entryDx=0;entryDy=0;endArrow=none;startFill=0;" edge="1" parent="1" source="_8v8_xtLDQyx1Tbt9Tl6-2" target="_8v8_xtLDQyx1Tbt9Tl6-3">
          <mxGeometry relative="1" as="geometry" />
        </mxCell>
        <mxCell id="_8v8_xtLDQyx1Tbt9Tl6-37" value="" style="edgeStyle=orthogonalEdgeStyle;rounded=0;orthogonalLoop=1;jettySize=auto;html=1;endArrow=none;startFill=0;" edge="1" parent="1" source="_8v8_xtLDQyx1Tbt9Tl6-2" target="_8v8_xtLDQyx1Tbt9Tl6-35">
          <mxGeometry relative="1" as="geometry" />
        </mxCell>
        <mxCell id="_8v8_xtLDQyx1Tbt9Tl6-2" value="Termék" style="rounded=0;whiteSpace=wrap;html=1;" vertex="1" parent="1">
          <mxGeometry x="-875" y="-278" width="200" height="80" as="geometry" />
        </mxCell>
        <mxCell id="_8v8_xtLDQyx1Tbt9Tl6-3" value="Gyártja" style="rhombus;whiteSpace=wrap;html=1;" vertex="1" parent="1">
          <mxGeometry x="-615" y="-278" width="80" height="80" as="geometry" />
        </mxCell>
        <mxCell id="_8v8_xtLDQyx1Tbt9Tl6-7" value="N" style="text;html=1;align=center;verticalAlign=middle;whiteSpace=wrap;rounded=0;" vertex="1" parent="1">
          <mxGeometry x="-685" y="-268" width="60" height="30" as="geometry" />
        </mxCell>
        <mxCell id="_8v8_xtLDQyx1Tbt9Tl6-8" value="1" style="text;html=1;align=center;verticalAlign=middle;whiteSpace=wrap;rounded=0;" vertex="1" parent="1">
          <mxGeometry x="-521" y="-268" width="60" height="30" as="geometry" />
        </mxCell>
        <mxCell id="_8v8_xtLDQyx1Tbt9Tl6-74" style="edgeStyle=orthogonalEdgeStyle;rounded=0;orthogonalLoop=1;jettySize=auto;html=1;entryX=0;entryY=0.5;entryDx=0;entryDy=0;endArrow=none;startFill=0;" edge="1" parent="1" source="_8v8_xtLDQyx1Tbt9Tl6-9" target="_8v8_xtLDQyx1Tbt9Tl6-2">
          <mxGeometry relative="1" as="geometry" />
        </mxCell>
        <mxCell id="_8v8_xtLDQyx1Tbt9Tl6-9" value="&lt;u&gt;Tkód&lt;/u&gt;" style="ellipse;whiteSpace=wrap;html=1;" vertex="1" parent="1">
          <mxGeometry x="-1055" y="-378" width="120" height="80" as="geometry" />
        </mxCell>
        <mxCell id="_8v8_xtLDQyx1Tbt9Tl6-76" style="edgeStyle=orthogonalEdgeStyle;rounded=0;orthogonalLoop=1;jettySize=auto;html=1;entryX=0;entryY=0.5;entryDx=0;entryDy=0;endArrow=none;startFill=0;" edge="1" parent="1" source="_8v8_xtLDQyx1Tbt9Tl6-10" target="_8v8_xtLDQyx1Tbt9Tl6-2">
          <mxGeometry relative="1" as="geometry" />
        </mxCell>
        <mxCell id="_8v8_xtLDQyx1Tbt9Tl6-10" value="név" style="ellipse;whiteSpace=wrap;html=1;" vertex="1" parent="1">
          <mxGeometry x="-1055" y="-278" width="120" height="80" as="geometry" />
        </mxCell>
        <mxCell id="_8v8_xtLDQyx1Tbt9Tl6-77" style="edgeStyle=orthogonalEdgeStyle;rounded=0;orthogonalLoop=1;jettySize=auto;html=1;entryX=0;entryY=0.5;entryDx=0;entryDy=0;endArrow=none;startFill=0;" edge="1" parent="1" source="_8v8_xtLDQyx1Tbt9Tl6-11" target="_8v8_xtLDQyx1Tbt9Tl6-2">
          <mxGeometry relative="1" as="geometry" />
        </mxCell>
        <mxCell id="_8v8_xtLDQyx1Tbt9Tl6-11" value="ear" style="ellipse;whiteSpace=wrap;html=1;" vertex="1" parent="1">
          <mxGeometry x="-1055" y="-178" width="120" height="80" as="geometry" />
        </mxCell>
        <mxCell id="_8v8_xtLDQyx1Tbt9Tl6-61" style="edgeStyle=orthogonalEdgeStyle;rounded=0;orthogonalLoop=1;jettySize=auto;html=1;entryX=1;entryY=0.5;entryDx=0;entryDy=0;endArrow=none;startFill=0;" edge="1" parent="1" source="_8v8_xtLDQyx1Tbt9Tl6-12" target="_8v8_xtLDQyx1Tbt9Tl6-1">
          <mxGeometry relative="1" as="geometry" />
        </mxCell>
        <mxCell id="_8v8_xtLDQyx1Tbt9Tl6-12" value="név" style="ellipse;whiteSpace=wrap;html=1;" vertex="1" parent="1">
          <mxGeometry x="-215" y="-328" width="120" height="80" as="geometry" />
        </mxCell>
        <mxCell id="_8v8_xtLDQyx1Tbt9Tl6-62" style="edgeStyle=orthogonalEdgeStyle;rounded=0;orthogonalLoop=1;jettySize=auto;html=1;entryX=1;entryY=0.5;entryDx=0;entryDy=0;endArrow=none;startFill=0;" edge="1" parent="1" source="_8v8_xtLDQyx1Tbt9Tl6-13" target="_8v8_xtLDQyx1Tbt9Tl6-1">
          <mxGeometry relative="1" as="geometry" />
        </mxCell>
        <mxCell id="_8v8_xtLDQyx1Tbt9Tl6-13" value="telephely" style="ellipse;whiteSpace=wrap;html=1;" vertex="1" parent="1">
          <mxGeometry x="-215" y="-228" width="120" height="80" as="geometry" />
        </mxCell>
        <mxCell id="_8v8_xtLDQyx1Tbt9Tl6-60" style="edgeStyle=orthogonalEdgeStyle;rounded=0;orthogonalLoop=1;jettySize=auto;html=1;entryX=1;entryY=0.5;entryDx=0;entryDy=0;endArrow=none;startFill=0;" edge="1" parent="1" source="_8v8_xtLDQyx1Tbt9Tl6-14" target="_8v8_xtLDQyx1Tbt9Tl6-1">
          <mxGeometry relative="1" as="geometry" />
        </mxCell>
        <mxCell id="_8v8_xtLDQyx1Tbt9Tl6-14" value="&lt;u&gt;Adószám&lt;/u&gt;" style="ellipse;whiteSpace=wrap;html=1;" vertex="1" parent="1">
          <mxGeometry x="-215" y="-428" width="120" height="80" as="geometry" />
        </mxCell>
        <mxCell id="_8v8_xtLDQyx1Tbt9Tl6-63" style="edgeStyle=orthogonalEdgeStyle;rounded=0;orthogonalLoop=1;jettySize=auto;html=1;entryX=1;entryY=0.5;entryDx=0;entryDy=0;endArrow=none;startFill=0;" edge="1" parent="1" source="_8v8_xtLDQyx1Tbt9Tl6-23" target="_8v8_xtLDQyx1Tbt9Tl6-1">
          <mxGeometry relative="1" as="geometry" />
        </mxCell>
        <mxCell id="_8v8_xtLDQyx1Tbt9Tl6-23" value="postai cím" style="ellipse;whiteSpace=wrap;html=1;" vertex="1" parent="1">
          <mxGeometry x="-215" y="-128" width="120" height="80" as="geometry" />
        </mxCell>
        <mxCell id="_8v8_xtLDQyx1Tbt9Tl6-67" style="rounded=0;orthogonalLoop=1;jettySize=auto;html=1;endArrow=none;startFill=0;entryX=0.5;entryY=1;entryDx=0;entryDy=0;exitX=0;exitY=0.5;exitDx=0;exitDy=0;" edge="1" parent="1" source="_8v8_xtLDQyx1Tbt9Tl6-25" target="_8v8_xtLDQyx1Tbt9Tl6-23">
          <mxGeometry relative="1" as="geometry">
            <mxPoint x="-151" y="-42" as="targetPoint" />
            <Array as="points">
              <mxPoint x="-155" y="-12" />
            </Array>
          </mxGeometry>
        </mxCell>
        <mxCell id="_8v8_xtLDQyx1Tbt9Tl6-25" value="irányítószám" style="ellipse;whiteSpace=wrap;html=1;" vertex="1" parent="1">
          <mxGeometry x="-131" y="-32" width="80" height="40" as="geometry" />
        </mxCell>
        <mxCell id="_8v8_xtLDQyx1Tbt9Tl6-26" value="város" style="ellipse;whiteSpace=wrap;html=1;" vertex="1" parent="1">
          <mxGeometry x="-131" y="18" width="80" height="40" as="geometry" />
        </mxCell>
        <mxCell id="_8v8_xtLDQyx1Tbt9Tl6-27" value="utca" style="ellipse;whiteSpace=wrap;html=1;" vertex="1" parent="1">
          <mxGeometry x="-131" y="68" width="80" height="40" as="geometry" />
        </mxCell>
        <mxCell id="_8v8_xtLDQyx1Tbt9Tl6-28" value="házszám" style="ellipse;whiteSpace=wrap;html=1;" vertex="1" parent="1">
          <mxGeometry x="-131" y="118" width="80" height="40" as="geometry" />
        </mxCell>
        <mxCell id="_8v8_xtLDQyx1Tbt9Tl6-38" value="" style="edgeStyle=orthogonalEdgeStyle;rounded=0;orthogonalLoop=1;jettySize=auto;html=1;endArrow=none;startFill=0;" edge="1" parent="1" source="_8v8_xtLDQyx1Tbt9Tl6-34" target="_8v8_xtLDQyx1Tbt9Tl6-35">
          <mxGeometry relative="1" as="geometry" />
        </mxCell>
        <mxCell id="_8v8_xtLDQyx1Tbt9Tl6-34" value="Csomagolási egység" style="rounded=0;whiteSpace=wrap;html=1;" vertex="1" parent="1">
          <mxGeometry x="-875" y="-18" width="200" height="80" as="geometry" />
        </mxCell>
        <mxCell id="_8v8_xtLDQyx1Tbt9Tl6-35" value="Csomagol" style="rhombus;whiteSpace=wrap;html=1;" vertex="1" parent="1">
          <mxGeometry x="-815" y="-148" width="80" height="80" as="geometry" />
        </mxCell>
        <mxCell id="_8v8_xtLDQyx1Tbt9Tl6-39" value="1" style="text;html=1;align=center;verticalAlign=middle;whiteSpace=wrap;rounded=0;" vertex="1" parent="1">
          <mxGeometry x="-815" y="-188" width="60" height="30" as="geometry" />
        </mxCell>
        <mxCell id="_8v8_xtLDQyx1Tbt9Tl6-40" value="N" style="text;html=1;align=center;verticalAlign=middle;whiteSpace=wrap;rounded=0;" vertex="1" parent="1">
          <mxGeometry x="-815" y="-58" width="60" height="30" as="geometry" />
        </mxCell>
        <mxCell id="_8v8_xtLDQyx1Tbt9Tl6-41" value="darabszám" style="ellipse;whiteSpace=wrap;html=1;" vertex="1" parent="1">
          <mxGeometry x="-745" y="92" width="120" height="80" as="geometry" />
        </mxCell>
        <mxCell id="_8v8_xtLDQyx1Tbt9Tl6-42" value="&lt;u&gt;Egységkód&lt;/u&gt;" style="ellipse;whiteSpace=wrap;html=1;" vertex="1" parent="1">
          <mxGeometry x="-925" y="92" width="120" height="80" as="geometry" />
        </mxCell>
        <mxCell id="_8v8_xtLDQyx1Tbt9Tl6-80" value="" style="edgeStyle=orthogonalEdgeStyle;rounded=0;orthogonalLoop=1;jettySize=auto;html=1;endArrow=none;startFill=0;" edge="1" parent="1" source="_8v8_xtLDQyx1Tbt9Tl6-51" target="_8v8_xtLDQyx1Tbt9Tl6-78">
          <mxGeometry relative="1" as="geometry" />
        </mxCell>
        <mxCell id="_8v8_xtLDQyx1Tbt9Tl6-51" value="Alkatrész" style="rounded=0;whiteSpace=wrap;html=1;" vertex="1" parent="1">
          <mxGeometry x="-875" y="-538" width="200" height="80" as="geometry" />
        </mxCell>
        <mxCell id="_8v8_xtLDQyx1Tbt9Tl6-52" value="név" style="ellipse;whiteSpace=wrap;html=1;" vertex="1" parent="1">
          <mxGeometry x="-745" y="-648" width="120" height="80" as="geometry" />
        </mxCell>
        <mxCell id="_8v8_xtLDQyx1Tbt9Tl6-53" value="&lt;u&gt;Akód&lt;/u&gt;" style="ellipse;whiteSpace=wrap;html=1;" vertex="1" parent="1">
          <mxGeometry x="-925" y="-648" width="120" height="80" as="geometry" />
        </mxCell>
        <mxCell id="_8v8_xtLDQyx1Tbt9Tl6-70" value="" style="endArrow=none;html=1;rounded=0;entryX=0;entryY=0.5;entryDx=0;entryDy=0;exitX=0.5;exitY=1;exitDx=0;exitDy=0;" edge="1" parent="1" source="_8v8_xtLDQyx1Tbt9Tl6-23" target="_8v8_xtLDQyx1Tbt9Tl6-26">
          <mxGeometry width="50" height="50" relative="1" as="geometry">
            <mxPoint x="-181" y="38" as="sourcePoint" />
            <mxPoint x="-151" y="-2" as="targetPoint" />
            <Array as="points">
              <mxPoint x="-155" y="38" />
            </Array>
          </mxGeometry>
        </mxCell>
        <mxCell id="_8v8_xtLDQyx1Tbt9Tl6-71" value="" style="endArrow=none;html=1;rounded=0;entryX=0;entryY=0.5;entryDx=0;entryDy=0;exitX=0.5;exitY=1;exitDx=0;exitDy=0;" edge="1" parent="1" source="_8v8_xtLDQyx1Tbt9Tl6-23" target="_8v8_xtLDQyx1Tbt9Tl6-27">
          <mxGeometry width="50" height="50" relative="1" as="geometry">
            <mxPoint x="-181" y="78" as="sourcePoint" />
            <mxPoint x="-131" y="28" as="targetPoint" />
            <Array as="points">
              <mxPoint x="-155" y="88" />
            </Array>
          </mxGeometry>
        </mxCell>
        <mxCell id="_8v8_xtLDQyx1Tbt9Tl6-72" value="" style="endArrow=none;html=1;rounded=0;entryX=0;entryY=0.5;entryDx=0;entryDy=0;exitX=0.5;exitY=1;exitDx=0;exitDy=0;" edge="1" parent="1" source="_8v8_xtLDQyx1Tbt9Tl6-23" target="_8v8_xtLDQyx1Tbt9Tl6-28">
          <mxGeometry width="50" height="50" relative="1" as="geometry">
            <mxPoint x="-191" y="118" as="sourcePoint" />
            <mxPoint x="-141" y="68" as="targetPoint" />
            <Array as="points">
              <mxPoint x="-155" y="138" />
            </Array>
          </mxGeometry>
        </mxCell>
        <mxCell id="_8v8_xtLDQyx1Tbt9Tl6-79" value="" style="edgeStyle=orthogonalEdgeStyle;rounded=0;orthogonalLoop=1;jettySize=auto;html=1;endArrow=none;startFill=0;" edge="1" parent="1" source="_8v8_xtLDQyx1Tbt9Tl6-78" target="_8v8_xtLDQyx1Tbt9Tl6-2">
          <mxGeometry relative="1" as="geometry" />
        </mxCell>
        <mxCell id="_8v8_xtLDQyx1Tbt9Tl6-78" value="Tartalmaz" style="rhombus;whiteSpace=wrap;html=1;" vertex="1" parent="1">
          <mxGeometry x="-815" y="-408" width="80" height="80" as="geometry" />
        </mxCell>
        <mxCell id="_8v8_xtLDQyx1Tbt9Tl6-81" value="N" style="text;html=1;align=center;verticalAlign=middle;whiteSpace=wrap;rounded=0;" vertex="1" parent="1">
          <mxGeometry x="-815" y="-318" width="60" height="30" as="geometry" />
        </mxCell>
        <mxCell id="_8v8_xtLDQyx1Tbt9Tl6-82" value="M" style="text;html=1;align=center;verticalAlign=middle;whiteSpace=wrap;rounded=0;" vertex="1" parent="1">
          <mxGeometry x="-815" y="-448" width="60" height="30" as="geometry" />
        </mxCell>
        <mxCell id="_8v8_xtLDQyx1Tbt9Tl6-84" value="" style="endArrow=none;html=1;rounded=0;entryX=0;entryY=0.5;entryDx=0;entryDy=0;exitX=0.5;exitY=0;exitDx=0;exitDy=0;" edge="1" parent="1" source="_8v8_xtLDQyx1Tbt9Tl6-51" target="_8v8_xtLDQyx1Tbt9Tl6-52">
          <mxGeometry width="50" height="50" relative="1" as="geometry">
            <mxPoint x="-761" y="-502" as="sourcePoint" />
            <mxPoint x="-711" y="-552" as="targetPoint" />
            <Array as="points">
              <mxPoint x="-775" y="-608" />
            </Array>
          </mxGeometry>
        </mxCell>
        <mxCell id="_8v8_xtLDQyx1Tbt9Tl6-85" value="" style="endArrow=none;html=1;rounded=0;entryX=1;entryY=0.5;entryDx=0;entryDy=0;exitX=0.5;exitY=0;exitDx=0;exitDy=0;" edge="1" parent="1" source="_8v8_xtLDQyx1Tbt9Tl6-51" target="_8v8_xtLDQyx1Tbt9Tl6-53">
          <mxGeometry width="50" height="50" relative="1" as="geometry">
            <mxPoint x="-761" y="-502" as="sourcePoint" />
            <mxPoint x="-711" y="-552" as="targetPoint" />
            <Array as="points">
              <mxPoint x="-775" y="-608" />
            </Array>
          </mxGeometry>
        </mxCell>
        <mxCell id="_8v8_xtLDQyx1Tbt9Tl6-91" value="" style="endArrow=none;html=1;rounded=0;exitX=1;exitY=0.5;exitDx=0;exitDy=0;entryX=0.5;entryY=1;entryDx=0;entryDy=0;" edge="1" parent="1" source="_8v8_xtLDQyx1Tbt9Tl6-42" target="_8v8_xtLDQyx1Tbt9Tl6-34">
          <mxGeometry width="50" height="50" relative="1" as="geometry">
            <mxPoint x="-771" y="88" as="sourcePoint" />
            <mxPoint x="-721" y="38" as="targetPoint" />
            <Array as="points">
              <mxPoint x="-775" y="132" />
            </Array>
          </mxGeometry>
        </mxCell>
        <mxCell id="_8v8_xtLDQyx1Tbt9Tl6-93" value="" style="endArrow=none;html=1;rounded=0;exitX=0;exitY=0.5;exitDx=0;exitDy=0;entryX=0.5;entryY=1;entryDx=0;entryDy=0;" edge="1" parent="1" source="_8v8_xtLDQyx1Tbt9Tl6-41" target="_8v8_xtLDQyx1Tbt9Tl6-34">
          <mxGeometry width="50" height="50" relative="1" as="geometry">
            <mxPoint x="-771" y="88" as="sourcePoint" />
            <mxPoint x="-721" y="38" as="targetPoint" />
            <Array as="points">
              <mxPoint x="-775" y="132" />
            </Array>
          </mxGeometry>
        </mxCell>
        <mxCell id="_8v8_xtLDQyx1Tbt9Tl6-152" value="" style="edgeStyle=orthogonalEdgeStyle;rounded=0;orthogonalLoop=1;jettySize=auto;html=1;endArrow=none;startFill=0;" edge="1" parent="1" source="_8v8_xtLDQyx1Tbt9Tl6-94" target="_8v8_xtLDQyx1Tbt9Tl6-105">
          <mxGeometry relative="1" as="geometry" />
        </mxCell>
        <mxCell id="_8v8_xtLDQyx1Tbt9Tl6-94" value="Rendelés" style="rounded=0;whiteSpace=wrap;html=1;" vertex="1" parent="1">
          <mxGeometry x="-475" y="-730" width="200" height="80" as="geometry" />
        </mxCell>
        <mxCell id="_8v8_xtLDQyx1Tbt9Tl6-102" style="edgeStyle=orthogonalEdgeStyle;rounded=0;orthogonalLoop=1;jettySize=auto;html=1;entryX=1;entryY=0.5;entryDx=0;entryDy=0;endArrow=none;startFill=0;" edge="1" parent="1" source="_8v8_xtLDQyx1Tbt9Tl6-95" target="_8v8_xtLDQyx1Tbt9Tl6-94">
          <mxGeometry relative="1" as="geometry">
            <mxPoint x="-249" y="-640" as="targetPoint" />
          </mxGeometry>
        </mxCell>
        <mxCell id="_8v8_xtLDQyx1Tbt9Tl6-95" value="dátum" style="ellipse;whiteSpace=wrap;html=1;" vertex="1" parent="1">
          <mxGeometry x="-215" y="-680" width="120" height="80" as="geometry" />
        </mxCell>
        <mxCell id="_8v8_xtLDQyx1Tbt9Tl6-103" style="edgeStyle=orthogonalEdgeStyle;rounded=0;orthogonalLoop=1;jettySize=auto;html=1;entryX=1;entryY=0.5;entryDx=0;entryDy=0;endArrow=none;startFill=0;" edge="1" parent="1" source="_8v8_xtLDQyx1Tbt9Tl6-96" target="_8v8_xtLDQyx1Tbt9Tl6-94">
          <mxGeometry relative="1" as="geometry" />
        </mxCell>
        <mxCell id="_8v8_xtLDQyx1Tbt9Tl6-96" value="&lt;u&gt;Rkód&lt;/u&gt;" style="ellipse;whiteSpace=wrap;html=1;" vertex="1" parent="1">
          <mxGeometry x="-215" y="-880" width="120" height="80" as="geometry" />
        </mxCell>
        <mxCell id="_8v8_xtLDQyx1Tbt9Tl6-101" style="edgeStyle=orthogonalEdgeStyle;rounded=0;orthogonalLoop=1;jettySize=auto;html=1;entryX=1;entryY=0.5;entryDx=0;entryDy=0;endArrow=none;startFill=0;" edge="1" parent="1" source="_8v8_xtLDQyx1Tbt9Tl6-99" target="_8v8_xtLDQyx1Tbt9Tl6-94">
          <mxGeometry relative="1" as="geometry">
            <mxPoint x="-249" y="-740" as="targetPoint" />
          </mxGeometry>
        </mxCell>
        <mxCell id="_8v8_xtLDQyx1Tbt9Tl6-99" value="darabszám" style="ellipse;whiteSpace=wrap;html=1;" vertex="1" parent="1">
          <mxGeometry x="-215" y="-780" width="120" height="80" as="geometry" />
        </mxCell>
        <mxCell id="_8v8_xtLDQyx1Tbt9Tl6-178" style="edgeStyle=orthogonalEdgeStyle;rounded=0;orthogonalLoop=1;jettySize=auto;html=1;entryX=1;entryY=0.5;entryDx=0;entryDy=0;" edge="1" parent="1" source="_8v8_xtLDQyx1Tbt9Tl6-100" target="_8v8_xtLDQyx1Tbt9Tl6-94">
          <mxGeometry relative="1" as="geometry" />
        </mxCell>
        <mxCell id="_8v8_xtLDQyx1Tbt9Tl6-100" value="ár=&lt;span style=&quot;background-color: transparent; color: light-dark(rgb(0, 0, 0), rgb(255, 255, 255));&quot;&gt;darabszám*ear&lt;/span&gt;" style="ellipse;whiteSpace=wrap;html=1;dashed=1;" vertex="1" parent="1">
          <mxGeometry x="-215" y="-580" width="120" height="80" as="geometry" />
        </mxCell>
        <mxCell id="_8v8_xtLDQyx1Tbt9Tl6-105" value="Rendel" style="rhombus;whiteSpace=wrap;html=1;" vertex="1" parent="1">
          <mxGeometry x="-415" y="-880" width="80" height="80" as="geometry" />
        </mxCell>
        <mxCell id="_8v8_xtLDQyx1Tbt9Tl6-151" value="" style="edgeStyle=orthogonalEdgeStyle;rounded=0;orthogonalLoop=1;jettySize=auto;html=1;endArrow=none;startFill=0;" edge="1" parent="1" source="_8v8_xtLDQyx1Tbt9Tl6-140" target="_8v8_xtLDQyx1Tbt9Tl6-105">
          <mxGeometry relative="1" as="geometry" />
        </mxCell>
        <mxCell id="_8v8_xtLDQyx1Tbt9Tl6-140" value="Vevő" style="rounded=0;whiteSpace=wrap;html=1;" vertex="1" parent="1">
          <mxGeometry x="-875" y="-880" width="200" height="80" as="geometry" />
        </mxCell>
        <mxCell id="_8v8_xtLDQyx1Tbt9Tl6-141" style="edgeStyle=orthogonalEdgeStyle;rounded=0;orthogonalLoop=1;jettySize=auto;html=1;entryX=0;entryY=0.5;entryDx=0;entryDy=0;endArrow=none;startFill=0;" edge="1" parent="1" source="_8v8_xtLDQyx1Tbt9Tl6-142" target="_8v8_xtLDQyx1Tbt9Tl6-140">
          <mxGeometry relative="1" as="geometry" />
        </mxCell>
        <mxCell id="_8v8_xtLDQyx1Tbt9Tl6-142" value="&lt;u&gt;Vkód&lt;/u&gt;" style="ellipse;whiteSpace=wrap;html=1;rotation=0;" vertex="1" parent="1">
          <mxGeometry x="-1055" y="-980" width="120" height="80" as="geometry" />
        </mxCell>
        <mxCell id="_8v8_xtLDQyx1Tbt9Tl6-143" style="edgeStyle=orthogonalEdgeStyle;rounded=0;orthogonalLoop=1;jettySize=auto;html=1;entryX=0;entryY=0.5;entryDx=0;entryDy=0;endArrow=none;startFill=0;" edge="1" parent="1" source="_8v8_xtLDQyx1Tbt9Tl6-144" target="_8v8_xtLDQyx1Tbt9Tl6-140">
          <mxGeometry relative="1" as="geometry" />
        </mxCell>
        <mxCell id="_8v8_xtLDQyx1Tbt9Tl6-144" value="név" style="ellipse;whiteSpace=wrap;html=1;rotation=0;" vertex="1" parent="1">
          <mxGeometry x="-1055" y="-880" width="120" height="80" as="geometry" />
        </mxCell>
        <mxCell id="_8v8_xtLDQyx1Tbt9Tl6-145" style="edgeStyle=orthogonalEdgeStyle;rounded=0;orthogonalLoop=1;jettySize=auto;html=1;entryX=0;entryY=0.5;entryDx=0;entryDy=0;endArrow=none;startFill=0;" edge="1" parent="1" source="_8v8_xtLDQyx1Tbt9Tl6-146" target="_8v8_xtLDQyx1Tbt9Tl6-140">
          <mxGeometry relative="1" as="geometry" />
        </mxCell>
        <mxCell id="_8v8_xtLDQyx1Tbt9Tl6-146" value="lakcím" style="ellipse;whiteSpace=wrap;html=1;rotation=0;" vertex="1" parent="1">
          <mxGeometry x="-1055" y="-780" width="120" height="80" as="geometry" />
        </mxCell>
        <mxCell id="_8v8_xtLDQyx1Tbt9Tl6-156" style="edgeStyle=orthogonalEdgeStyle;rounded=0;orthogonalLoop=1;jettySize=auto;html=1;exitX=0;exitY=0.5;exitDx=0;exitDy=0;entryX=1;entryY=0;entryDx=0;entryDy=0;endArrow=none;startFill=0;" edge="1" parent="1" source="_8v8_xtLDQyx1Tbt9Tl6-155" target="_8v8_xtLDQyx1Tbt9Tl6-2">
          <mxGeometry relative="1" as="geometry" />
        </mxCell>
        <mxCell id="_8v8_xtLDQyx1Tbt9Tl6-177" style="edgeStyle=orthogonalEdgeStyle;rounded=0;orthogonalLoop=1;jettySize=auto;html=1;entryX=0.5;entryY=1;entryDx=0;entryDy=0;endArrow=none;startFill=0;" edge="1" parent="1" source="_8v8_xtLDQyx1Tbt9Tl6-155" target="_8v8_xtLDQyx1Tbt9Tl6-94">
          <mxGeometry relative="1" as="geometry" />
        </mxCell>
        <mxCell id="_8v8_xtLDQyx1Tbt9Tl6-155" value="Rendel" style="rhombus;whiteSpace=wrap;html=1;" vertex="1" parent="1">
          <mxGeometry x="-615" y="-408" width="80" height="80" as="geometry" />
        </mxCell>
        <mxCell id="_8v8_xtLDQyx1Tbt9Tl6-159" value="N" style="text;html=1;align=center;verticalAlign=middle;whiteSpace=wrap;rounded=0;" vertex="1" parent="1">
          <mxGeometry x="-715" y="-318" width="60" height="30" as="geometry" />
        </mxCell>
        <mxCell id="_8v8_xtLDQyx1Tbt9Tl6-160" value="M" style="text;html=1;align=center;verticalAlign=middle;whiteSpace=wrap;rounded=0;" vertex="1" parent="1">
          <mxGeometry x="-419" y="-640" width="60" height="30" as="geometry" />
        </mxCell>
        <mxCell id="_8v8_xtLDQyx1Tbt9Tl6-161" value="1" style="text;html=1;align=center;verticalAlign=middle;whiteSpace=wrap;rounded=0;" vertex="1" parent="1">
          <mxGeometry x="-685" y="-870" width="60" height="30" as="geometry" />
        </mxCell>
        <mxCell id="_8v8_xtLDQyx1Tbt9Tl6-162" value="N" style="text;html=1;align=center;verticalAlign=middle;whiteSpace=wrap;rounded=0;" vertex="1" parent="1">
          <mxGeometry x="-415" y="-760" width="60" height="30" as="geometry" />
        </mxCell>
        <mxCell id="_8v8_xtLDQyx1Tbt9Tl6-164" value="irányítószám" style="ellipse;whiteSpace=wrap;html=1;" vertex="1" parent="1">
          <mxGeometry x="-1119" y="-660" width="80" height="40" as="geometry" />
        </mxCell>
        <mxCell id="_8v8_xtLDQyx1Tbt9Tl6-165" value="város" style="ellipse;whiteSpace=wrap;html=1;" vertex="1" parent="1">
          <mxGeometry x="-1119" y="-610" width="80" height="40" as="geometry" />
        </mxCell>
        <mxCell id="_8v8_xtLDQyx1Tbt9Tl6-166" value="utca" style="ellipse;whiteSpace=wrap;html=1;" vertex="1" parent="1">
          <mxGeometry x="-1119" y="-560" width="80" height="40" as="geometry" />
        </mxCell>
        <mxCell id="_8v8_xtLDQyx1Tbt9Tl6-167" value="házszám" style="ellipse;whiteSpace=wrap;html=1;" vertex="1" parent="1">
          <mxGeometry x="-1119" y="-510" width="80" height="40" as="geometry" />
        </mxCell>
        <mxCell id="_8v8_xtLDQyx1Tbt9Tl6-173" value="" style="endArrow=none;html=1;rounded=0;exitX=1;exitY=0.5;exitDx=0;exitDy=0;entryX=0.5;entryY=1;entryDx=0;entryDy=0;" edge="1" parent="1" source="_8v8_xtLDQyx1Tbt9Tl6-164" target="_8v8_xtLDQyx1Tbt9Tl6-146">
          <mxGeometry width="50" height="50" relative="1" as="geometry">
            <mxPoint x="-959" y="-590" as="sourcePoint" />
            <mxPoint x="-909" y="-640" as="targetPoint" />
            <Array as="points">
              <mxPoint x="-995" y="-640" />
            </Array>
          </mxGeometry>
        </mxCell>
        <mxCell id="_8v8_xtLDQyx1Tbt9Tl6-174" value="" style="endArrow=none;html=1;rounded=0;exitX=1;exitY=0.5;exitDx=0;exitDy=0;entryX=0.5;entryY=1;entryDx=0;entryDy=0;" edge="1" parent="1" source="_8v8_xtLDQyx1Tbt9Tl6-165" target="_8v8_xtLDQyx1Tbt9Tl6-146">
          <mxGeometry width="50" height="50" relative="1" as="geometry">
            <mxPoint x="-959" y="-590" as="sourcePoint" />
            <mxPoint x="-909" y="-640" as="targetPoint" />
            <Array as="points">
              <mxPoint x="-995" y="-590" />
            </Array>
          </mxGeometry>
        </mxCell>
        <mxCell id="_8v8_xtLDQyx1Tbt9Tl6-175" value="" style="endArrow=none;html=1;rounded=0;exitX=1;exitY=0.5;exitDx=0;exitDy=0;entryX=0.5;entryY=1;entryDx=0;entryDy=0;" edge="1" parent="1" source="_8v8_xtLDQyx1Tbt9Tl6-166" target="_8v8_xtLDQyx1Tbt9Tl6-146">
          <mxGeometry width="50" height="50" relative="1" as="geometry">
            <mxPoint x="-999" y="-540" as="sourcePoint" />
            <mxPoint x="-949" y="-590" as="targetPoint" />
            <Array as="points">
              <mxPoint x="-995" y="-540" />
            </Array>
          </mxGeometry>
        </mxCell>
        <mxCell id="_8v8_xtLDQyx1Tbt9Tl6-176" value="" style="endArrow=none;html=1;rounded=0;exitX=1;exitY=0.5;exitDx=0;exitDy=0;entryX=0.5;entryY=1;entryDx=0;entryDy=0;" edge="1" parent="1" source="_8v8_xtLDQyx1Tbt9Tl6-167" target="_8v8_xtLDQyx1Tbt9Tl6-146">
          <mxGeometry width="50" height="50" relative="1" as="geometry">
            <mxPoint x="-979" y="-510" as="sourcePoint" />
            <mxPoint x="-929" y="-560" as="targetPoint" />
            <Array as="points">
              <mxPoint x="-995" y="-490" />
            </Array>
          </mxGeometry>
        </mxCell>
      </root>
    </mxGraphModel>
  </diagram>
</mxfile>
